<svg version="1.1" viewBox="0.0 0.0 720.0 720.0" fill="none" stroke="none" stroke-linecap="square" stroke-miterlimit="10" xmlns:xlink="http://www.w3.org/1999/xlink" xmlns="http://www.w3.org/2000/svg"><clipPath id="p.0"><path d="m0 0l720.0 0l0 720.0l-720.0 0l0 -720.0z" clip-rule="nonzero"/></clipPath><g clip-path="url(#p.0)"><path fill="#000000" fill-opacity="0.0" d="m0 0l720.0 0l0 720.0l-720.0 0z" fill-rule="evenodd"/><path fill="#ffffff" d="m36.10499 363.23358l0 0c0 -178.87936 145.01038 -323.88977 323.88977 -323.88977l0 0c85.90091 0 168.28351 34.124 229.02466 94.86511c60.74109 60.74112 94.86511 143.12373 94.86511 229.02464l0 0c0 178.8794 -145.01038 323.88977 -323.88977 323.88977l0 0c-178.87938 0 -323.88977 -145.01038 -323.88977 -323.88977z" fill-rule="evenodd"/><path stroke="#ffffff" stroke-width="1.0" stroke-linejoin="round" stroke-linecap="butt" d="m36.10499 363.23358l0 0c0 -178.87936 145.01038 -323.88977 323.88977 -323.88977l0 0c85.90091 0 168.28351 34.124 229.02466 94.86511c60.74109 60.74112 94.86511 143.12373 94.86511 229.02464l0 0c0 178.8794 -145.01038 323.88977 -323.88977 323.88977l0 0c-178.87938 0 -323.88977 -145.01038 -323.88977 -323.88977z" fill-rule="evenodd"/><path fill="#d53c33" d="m121.52109 316.47412l244.9112 41.207977l86.99457 232.62424l-244.91121 -41.208008z" fill-rule="evenodd"/><path stroke="#ffffff" stroke-width="4.0" stroke-linejoin="round" stroke-linecap="butt" d="m121.52109 316.47412l244.9112 41.207977l86.99457 232.62424l-244.91121 -41.208008z" fill-rule="evenodd"/><path fill="#e89b10" d="m453.63446 590.21515l157.7356 -191.73486l-87.07703 -232.66748l-157.73557 191.73483z" fill-rule="evenodd"/><path stroke="#ffffff" stroke-width="4.0" stroke-linejoin="round" stroke-linecap="butt" d="m453.63446 590.21515l157.7356 -191.73486l-87.07703 -232.66748l-157.73557 191.73483z" fill-rule="evenodd"/><path fill="#1d909a" d="m121.865585 317.96182l244.95302 40.729065l158.00952 -191.72325l-244.953 -40.729057z" fill-rule="evenodd"/><path stroke="#ffffff" stroke-width="4.0" stroke-linejoin="round" stroke-linecap="butt" d="m121.865585 317.96182l244.95302 40.729065l158.00952 -191.72325l-244.953 -40.729057z" fill-rule="evenodd"/><path fill="#252525" d="m40.37008 363.24805l0 0c0 -176.53108 143.10672 -319.6378 319.6378 -319.6378l0 0c84.773224 0 166.07434 33.67603 226.01807 93.619736c59.943726 59.94371 93.61975 141.24483 93.61975 226.01805l0 0c0 176.53107 -143.10675 319.63782 -319.63782 319.63782l0 0c-176.53108 0 -319.6378 -143.10675 -319.6378 -319.63782zm38.848778 0l0 0c0 155.0755 125.71353 280.789 280.789 280.789c155.0755 0 280.789 -125.7135 280.789 -280.789l0 0c0 -155.07549 -125.7135 -280.789 -280.789 -280.789l0 0c-155.07549 0 -280.789 125.71353 -280.789 280.789z" fill-rule="evenodd"/><path stroke="#252525" stroke-width="12.0" stroke-linejoin="round" stroke-linecap="butt" d="m40.37008 363.24805l0 0c0 -176.53108 143.10672 -319.6378 319.6378 -319.6378l0 0c84.773224 0 166.07434 33.67603 226.01807 93.619736c59.943726 59.94371 93.61975 141.24483 93.61975 226.01805l0 0c0 176.53107 -143.10675 319.63782 -319.63782 319.63782l0 0c-176.53108 0 -319.6378 -143.10675 -319.6378 -319.63782zm38.848778 0l0 0c0 155.0755 125.71353 280.789 280.789 280.789c155.0755 0 280.789 -125.7135 280.789 -280.789l0 0c0 -155.07549 -125.7135 -280.789 -280.789 -280.789l0 0c-155.07549 0 -280.789 125.71353 -280.789 280.789z" fill-rule="evenodd"/></g></svg>