<svg version="1.1" viewBox="0.0 0.0 720.0 720.0" fill="none" stroke="none" stroke-linecap="square" stroke-miterlimit="10" xmlns:xlink="http://www.w3.org/1999/xlink" xmlns="http://www.w3.org/2000/svg"><clipPath id="p.0"><path d="m0 0l720.0 0l0 720.0l-720.0 0l0 -720.0z" clip-rule="nonzero"/></clipPath><g clip-path="url(#p.0)"><path fill="#000000" fill-opacity="0.0" d="m0 0l720.0 0l0 720.0l-720.0 0z" fill-rule="evenodd"/><path fill="#252525" d="m36.10499 363.23358l0 0c0 -178.87936 145.01038 -323.88977 323.88977 -323.88977l0 0c85.90091 0 168.28351 34.124 229.02466 94.86511c60.74109 60.74112 94.86511 143.12373 94.86511 229.02464l0 0c0 178.8794 -145.01038 323.88977 -323.88977 323.88977l0 0c-178.87938 0 -323.88977 -145.01038 -323.88977 -323.88977z" fill-rule="evenodd"/><path stroke="#ffffff" stroke-width="1.0" stroke-linejoin="round" stroke-linecap="butt" d="m36.10499 363.23358l0 0c0 -178.87936 145.01038 -323.88977 323.88977 -323.88977l0 0c85.90091 0 168.28351 34.124 229.02466 94.86511c60.74109 60.74112 94.86511 143.12373 94.86511 229.02464l0 0c0 178.8794 -145.01038 323.88977 -323.88977 323.88977l0 0c-178.87938 0 -323.88977 -145.01038 -323.88977 -323.88977z" fill-rule="evenodd"/><path fill="#000000" fill-opacity="0.0" d="m359.81277 360.4687l-127.325485 -285.65057" fill-rule="evenodd"/><path stroke="#252525" stroke-width="24.0" stroke-linejoin="round" stroke-linecap="butt" d="m359.81277 360.4687l-127.325485 -285.65057" fill-rule="evenodd"/><path fill="#000000" fill-opacity="0.0" d="m176.10497 613.5684l183.69691 -253.09634" fill-rule="evenodd"/><path stroke="#252525" stroke-width="24.0" stroke-linejoin="round" stroke-linecap="butt" d="m176.10497 613.5684l183.69691 -253.09634" fill-rule="evenodd"/><path fill="#000000" fill-opacity="0.0" d="m359.81223 360.46875l311.02243 32.55426" fill-rule="evenodd"/><path stroke="#252525" stroke-width="24.0" stroke-linejoin="round" stroke-linecap="butt" d="m359.81223 360.46875l311.02243 32.55426" fill-rule="evenodd"/><path fill="#000000" fill-opacity="0.0" d="m232.48769 74.81872l311.0224 32.554283" fill-rule="evenodd"/><path stroke="#ffffff" stroke-width="24.0" stroke-linejoin="round" stroke-linecap="butt" d="m232.48769 74.81872l311.0224 32.554283" fill-rule="evenodd"/><path fill="#000000" fill-opacity="0.0" d="m670.83765 393.0191l-127.3255 -285.65057" fill-rule="evenodd"/><path stroke="#ffffff" stroke-width="24.0" stroke-linejoin="round" stroke-linecap="butt" d="m670.83765 393.0191l-127.3255 -285.65057" fill-rule="evenodd"/><path fill="#000000" fill-opacity="0.0" d="m48.78041 327.9184l183.69693 -253.09633" fill-rule="evenodd"/><path stroke="#ffffff" stroke-width="24.0" stroke-linejoin="round" stroke-linecap="butt" d="m48.78041 327.9184l183.69693 -253.09633" fill-rule="evenodd"/><path fill="#000000" fill-opacity="0.0" d="m176.10472 613.56757l311.0224 32.55432" fill-rule="evenodd"/><path stroke="#ffffff" stroke-width="24.0" stroke-linejoin="round" stroke-linecap="butt" d="m176.10472 613.56757l311.0224 32.55432" fill-rule="evenodd"/><path fill="#000000" fill-opacity="0.0" d="m176.10527 613.56757l-127.325485 -285.6506" fill-rule="evenodd"/><path stroke="#ffffff" stroke-width="24.0" stroke-linejoin="round" stroke-linecap="butt" d="m176.10527 613.56757l-127.325485 -285.6506" fill-rule="evenodd"/><path fill="#000000" fill-opacity="0.0" d="m487.12982 646.11884l183.69696 -253.09634" fill-rule="evenodd"/><path stroke="#ffffff" stroke-width="24.0" stroke-linejoin="round" stroke-linecap="butt" d="m487.12982 646.11884l183.69696 -253.09634" fill-rule="evenodd"/><path fill="#d53c33" d="m172.05617 323.21335l192.25444 32.34613l68.29117 182.6243l-192.25446 -32.3461z" fill-rule="evenodd"/><path stroke="#ffffff" stroke-width="4.0" stroke-linejoin="round" stroke-linecap="butt" d="m172.05617 323.21335l192.25444 32.34613l68.29117 182.6243l-192.25446 -32.3461z" fill-rule="evenodd"/><path fill="#e89b10" d="m432.76474 538.1122l123.82504 -150.5181l-68.355896 -182.65826l-123.82501 150.5181z" fill-rule="evenodd"/><path stroke="#ffffff" stroke-width="4.0" stroke-linejoin="round" stroke-linecap="butt" d="m432.76474 538.1122l123.82504 -150.5181l-68.355896 -182.65826l-123.82501 150.5181z" fill-rule="evenodd"/><path fill="#1d909a" d="m172.3266 324.3813l192.2873 31.975067l124.04004 -150.51393l-192.2873 -31.975082z" fill-rule="evenodd"/><path stroke="#ffffff" stroke-width="4.0" stroke-linejoin="round" stroke-linecap="butt" d="m172.3266 324.3813l192.2873 31.975067l124.04004 -150.51393l-192.2873 -31.975082z" fill-rule="evenodd"/><path fill="#ffffff" d="m40.37008 363.24805l0 0c0 -176.53108 143.10672 -319.6378 319.6378 -319.6378l0 0c84.773224 0 166.07434 33.67603 226.01807 93.619736c59.943726 59.94371 93.61975 141.24483 93.61975 226.01805l0 0c0 176.53107 -143.10675 319.63782 -319.63782 319.63782l0 0c-176.53108 0 -319.6378 -143.10675 -319.6378 -319.63782zm38.848778 0l0 0c0 155.0755 125.71353 280.789 280.789 280.789c155.0755 0 280.789 -125.7135 280.789 -280.789l0 0c0 -155.07549 -125.7135 -280.789 -280.789 -280.789l0 0c-155.07549 0 -280.789 125.71353 -280.789 280.789z" fill-rule="evenodd"/><path stroke="#ffffff" stroke-width="12.0" stroke-linejoin="round" stroke-linecap="butt" d="m40.37008 363.24805l0 0c0 -176.53108 143.10672 -319.6378 319.6378 -319.6378l0 0c84.773224 0 166.07434 33.67603 226.01807 93.619736c59.943726 59.94371 93.61975 141.24483 93.61975 226.01805l0 0c0 176.53107 -143.10675 319.63782 -319.63782 319.63782l0 0c-176.53108 0 -319.6378 -143.10675 -319.6378 -319.63782zm38.848778 0l0 0c0 155.0755 125.71353 280.789 280.789 280.789c155.0755 0 280.789 -125.7135 280.789 -280.789l0 0c0 -155.07549 -125.7135 -280.789 -280.789 -280.789l0 0c-155.07549 0 -280.789 125.71353 -280.789 280.789z" fill-rule="evenodd"/></g></svg>