<svg version="1.1" viewBox="0.0 0.0 720.0 720.0" fill="none" stroke="none" stroke-linecap="square" stroke-miterlimit="10" xmlns:xlink="http://www.w3.org/1999/xlink" xmlns="http://www.w3.org/2000/svg"><clipPath id="p.0"><path d="m0 0l720.0 0l0 720.0l-720.0 0l0 -720.0z" clip-rule="nonzero"/></clipPath><g clip-path="url(#p.0)"><path fill="#000000" fill-opacity="0.0" d="m0 0l720.0 0l0 720.0l-720.0 0z" fill-rule="evenodd"/><path fill="#000000" fill-opacity="0.0" d="m150.06299 360.02298l0 0c-0.01739502 -115.94499 93.96051 -209.9511 209.90552 -209.96849l0 0c55.67874 -0.008361816 109.08038 22.101929 148.45709 61.466858c39.37677 39.364914 61.50305 92.7599 61.511414 148.43864l0 0c0.01739502 115.94501 -93.96051 209.95114 -209.90552 209.96854l0 0c-115.94501 0.01739502 -209.95111 -93.96054 -209.9685 -209.90555z" fill-rule="evenodd"/><path fill="#252525" d="m47.212597 358.83203l0 0c0 -169.06003 138.28407 -306.11023 308.86615 -306.11023l0 0c81.91641 0 160.47772 32.25081 218.40137 89.65761c57.923645 57.406815 90.46478 135.26715 90.46478 216.45264l0 0c0 169.06 -138.28406 306.11023 -308.86615 306.11023l0 0c-170.58206 0 -308.86615 -137.05023 -308.86615 -306.11023z" fill-rule="evenodd"/><path stroke="#252525" stroke-width="1.0" stroke-linejoin="round" stroke-linecap="butt" d="m47.212597 358.83203l0 0c0 -169.06003 138.28407 -306.11023 308.86615 -306.11023l0 0c81.91641 0 160.47772 32.25081 218.40137 89.65761c57.923645 57.406815 90.46478 135.26715 90.46478 216.45264l0 0c0 169.06 -138.28406 306.11023 -308.86615 306.11023l0 0c-170.58206 0 -308.86615 -137.05023 -308.86615 -306.11023z" fill-rule="evenodd"/><path fill="#ffffff" d="m29.11811 359.99213l0 0c0 -182.74103 148.14087 -330.8819 330.8819 -330.8819l0 0c87.75534 0 171.91644 34.86067 233.96881 96.91306c62.05243 62.052383 96.913086 146.21349 96.913086 233.96883l0 0c0 182.74103 -148.14087 330.8819 -330.8819 330.8819l0 0c-182.74103 0 -330.8819 -148.14087 -330.8819 -330.8819zm33.47863 0l0 0c0 164.25128 133.15198 297.40326 297.40326 297.40326c164.25128 0 297.40326 -133.15198 297.40326 -297.40326l0 0c0 -164.25128 -133.15198 -297.40326 -297.40326 -297.40326l0 0c-164.25128 0 -297.40326 133.15198 -297.40326 297.40326z" fill-rule="evenodd"/><path stroke="#ffffff" stroke-width="1.0" stroke-linejoin="round" stroke-linecap="butt" d="m29.11811 359.99213l0 0c0 -182.74103 148.14087 -330.8819 330.8819 -330.8819l0 0c87.75534 0 171.91644 34.86067 233.96881 96.91306c62.05243 62.052383 96.913086 146.21349 96.913086 233.96883l0 0c0 182.74103 -148.14087 330.8819 -330.8819 330.8819l0 0c-182.74103 0 -330.8819 -148.14087 -330.8819 -330.8819zm33.47863 0l0 0c0 164.25128 133.15198 297.40326 297.40326 297.40326c164.25128 0 297.40326 -133.15198 297.40326 -297.40326l0 0c0 -164.25128 -133.15198 -297.40326 -297.40326 -297.40326l0 0c-164.25128 0 -297.40326 133.15198 -297.40326 297.40326z" fill-rule="evenodd"/><path fill="#1d909a" d="m150.49773 364.463l126.99562 -191.61256l200.22272 -0.032058716l-126.995636 191.61258z" fill-rule="evenodd"/><path stroke="#1d909a" stroke-width="1.0" stroke-linejoin="round" stroke-linecap="butt" d="m150.49773 364.463l126.99562 -191.61256l200.22272 -0.032058716l-126.995636 191.61258z" fill-rule="evenodd"/><path fill="#d53c33" d="m480.07526 552.5554l-229.45442 -14.185303l-100.147964 -173.34668l229.45444 14.185272z" fill-rule="evenodd"/><path stroke="#d53c33" stroke-width="1.0" stroke-linejoin="round" stroke-linecap="butt" d="m480.07526 552.5554l-229.45442 -14.185303l-100.147964 -173.34668l229.45444 14.185272z" fill-rule="evenodd"/><path fill="#e89b10" d="m478.0195 172.82794l102.44913 205.75024l-100.065094 173.37396l-102.44913 -205.75021z" fill-rule="evenodd"/><path stroke="#e89b10" stroke-width="1.0" stroke-linejoin="round" stroke-linecap="butt" d="m478.0195 172.82794l102.44913 205.75024l-100.065094 173.37396l-102.44913 -205.75021z" fill-rule="evenodd"/></g></svg>